<svg xmlns="http://www.w3.org/2000/svg" width="110" height="110" fill="none" viewBox="0 0 110 110">
  <path fill="#C5EBF5" stroke="#0055DC" stroke-miterlimit="10" stroke-width="2" d="M99.344 66.638h-87.58v26.889c0 5.516 19.606 9.987 43.79 9.987 24.183 0 43.79-4.474 43.79-9.987V66.638z"/>
  <path fill="#fff" d="M55.553 99.396c-10.179 0-20.005-.824-27.67-2.32-7.86-1.534-11.127-3.328-12.004-4.116V70.757h79.346V92.96c-.877.788-4.143 2.582-12.003 4.117-7.665 1.495-17.491 2.32-27.67 2.32z"/>
  <path fill="#FBAD41" stroke="#FBAD41" stroke-width="2" d="M29.735 86.759a2.073 2.073 0 11-4.146 0 2.073 2.073 0 014.146 0z"/>
  <path fill="#C5EBF5" stroke="#0055DC" stroke-miterlimit="10" stroke-width="2" d="M55.554 76.882c24.184 0 43.79-4.472 43.79-9.988 0-5.516-19.606-9.987-43.79-9.987-24.185 0-43.79 4.471-43.79 9.987s19.605 9.988 43.79 9.988z"/>
  <path fill="#fff" d="M55.554 73.808c-22.309 0-35.172-3.554-39.325-5.939a1.123 1.123 0 010-1.95c4.154-2.385 17.018-5.939 39.325-5.939 22.307 0 35.17 3.554 39.324 5.939a1.12 1.12 0 010 1.95c-4.153 2.385-17.016 5.94-39.324 5.94z"/>
  <path fill="#C5EBF5" stroke="#0055DC" stroke-miterlimit="10" stroke-width="2" d="M99.344 40.364h-87.58v26.889c0 5.516 19.606 9.987 43.79 9.987 24.183 0 43.79-4.471 43.79-9.987V40.364z"/>
  <path fill="#fff" d="M55.553 73.121c-10.179 0-20.005-.824-27.67-2.32-7.86-1.534-11.127-3.328-12.004-4.117V44.481h79.346v22.203c-.877.789-4.143 2.583-12.003 4.118-7.665 1.495-17.491 2.32-27.67 2.32z"/>
  <path fill="#F6821F" d="M27.662 63.558a3.073 3.073 0 100-6.146 3.073 3.073 0 000 6.146z"/>
  <path fill="#C5EBF5" stroke="#0055DC" stroke-miterlimit="10" stroke-width="2" d="M55.554 50.607c24.184 0 43.79-4.471 43.79-9.987s-19.606-9.988-43.79-9.988c-24.185 0-43.79 4.472-43.79 9.988 0 5.516 19.605 9.987 43.79 9.987z"/>
  <path fill="#fff" d="M55.554 47.535c-22.309 0-35.172-3.555-39.325-5.94a1.123 1.123 0 010-1.95c4.154-2.384 17.018-5.939 39.325-5.939 22.307 0 35.17 3.555 39.324 5.94a1.12 1.12 0 010 1.95c-4.153 2.384-17.016 5.939-39.324 5.939z"/>
  <path stroke="#0055DC" stroke-miterlimit="10" stroke-width="2" d="M43.91 63.114c3.407.194 6.971.297 10.641.297 12.092 0 23.04-1.118 30.965-2.927"/>
  <path fill="#C5EBF5" stroke="#0055DC" stroke-miterlimit="10" stroke-width="2" d="M99.344 14.462l-87.58.123V40.62c0 5.516 19.606 9.987 43.79 9.987 24.183 0 43.79-4.474 43.79-9.987V14.462z"/>
  <path fill="#fff" d="M55.554 46.49c-10.179 0-20.005-.824-27.671-2.32-7.859-1.535-11.125-3.329-12.002-4.117V17.85h79.345v22.203c-.877.788-4.143 2.582-12.003 4.116-7.665 1.497-17.491 2.32-27.67 2.32z"/>
  <path fill="#F63" d="M27.662 37.145a3.073 3.073 0 100-6.146 3.073 3.073 0 000 6.146z"/>
  <path fill="#C5EBF5" stroke="#0055DC" stroke-miterlimit="10" stroke-width="2" d="M55.554 23.975c24.184 0 43.79-4.472 43.79-9.988C99.344 8.472 79.738 4 55.554 4c-24.185 0-43.79 4.472-43.79 9.987 0 5.516 19.605 9.988 43.79 9.988z"/>
  <path fill="#C5EBF5" d="M70.308 23.883l8.284-1.104v77.323h-8.284V23.883zM82.459 21.122l3.313-1.104V97.34h-3.314V21.122z"/>
  <path stroke="#FBAD41" stroke-miterlimit="10" stroke-width="5" d="M43.91 89.388c3.407.194 6.971.297 10.641.297 12.092 0 23.04-1.118 30.965-2.927"/>
  <path stroke="#F6821F" stroke-miterlimit="10" stroke-width="5" d="M43.91 63.114c3.407.194 6.971.297 10.641.297 12.092 0 23.04-1.118 30.965-2.927"/>
  <path stroke="#F63" stroke-miterlimit="10" stroke-width="5" d="M43.91 36.482c3.407.194 6.971.297 10.641.297 12.092 0 23.04-1.118 30.965-2.927"/>
  <path fill="#C5EBF5" stroke="#0055DC" stroke-miterlimit="10" stroke-width="2" d="M55.554 23.975c24.185 0 43.79-4.472 43.79-9.988C99.344 8.472 79.74 4 55.554 4s-43.79 4.472-43.79 9.987c0 5.516 19.605 9.988 43.79 9.988z"/>
  <path fill="#0055DC" fill-rule="evenodd" d="M11.211 40.452v.046c0 .865.387 1.664 1.03 2.382.642.715 1.562 1.378 2.701 1.992 2.28 1.23 5.541 2.319 9.524 3.227 7.976 1.819 18.967 2.94 31.088 2.94 12.12 0 23.111-1.121 31.087-2.94 3.983-.908 7.245-1.998 9.524-3.227 1.14-.614 2.06-1.277 2.7-1.992.645-.718 1.031-1.517 1.031-2.382v-.046h-1.105v.046c0 .515-.225 1.062-.748 1.644-.525.586-1.326 1.177-2.402 1.758-2.153 1.16-5.305 2.223-9.246 3.122-7.873 1.796-18.778 2.912-30.841 2.912-12.064 0-22.968-1.116-30.842-2.912-3.941-.899-7.093-1.961-9.245-3.122-1.077-.58-1.878-1.172-2.403-1.758-.522-.582-.748-1.13-.748-1.644v-.046h-1.105z" clip-rule="evenodd"/>
  <path fill="#0055DC" fill-rule="evenodd" d="M11.423 41.032v.046c0 .865.386 1.664 1.03 2.382.642.714 1.562 1.377 2.701 1.992 2.28 1.229 5.541 2.318 9.524 3.227 7.976 1.819 18.966 2.939 31.088 2.939 12.12 0 23.111-1.12 31.087-2.94 3.983-.908 7.245-1.997 9.524-3.226 1.14-.615 2.06-1.278 2.7-1.992.645-.718 1.031-1.517 1.031-2.382v-.046h-1.105v.046c0 .514-.225 1.062-.748 1.644-.525.585-1.326 1.177-2.402 1.757-2.153 1.161-5.304 2.224-9.246 3.123-7.873 1.795-18.778 2.911-30.841 2.911-12.064 0-22.969-1.116-30.842-2.911-3.941-.9-7.093-1.962-9.245-3.123-1.077-.58-1.878-1.172-2.403-1.757-.522-.582-.748-1.13-.748-1.644v-.046h-1.105z" clip-rule="evenodd"/>
  <path fill="#0055DC" fill-rule="evenodd" d="M11.424 39.735v.047c0 .864.386 1.663 1.03 2.381.641.715 1.562 1.378 2.7 1.992 2.28 1.23 5.541 2.319 9.525 3.227 7.975 1.82 18.966 2.94 31.087 2.94 12.121 0 23.112-1.12 31.087-2.94 3.984-.908 7.245-1.998 9.524-3.227 1.14-.614 2.06-1.277 2.7-1.992.645-.718 1.032-1.517 1.032-2.381l-.001-.047h-1.105l.001.047c0 .514-.226 1.061-.748 1.644-.526.585-1.326 1.176-2.403 1.757-2.153 1.16-5.304 2.223-9.245 3.122-7.874 1.796-18.778 2.912-30.842 2.912S32.798 48.1 24.924 46.305c-3.94-.899-7.092-1.961-9.245-3.122-1.077-.58-1.877-1.172-2.403-1.757-.522-.583-.748-1.13-.748-1.644v-.047h-1.104zM11.211 66.963v.046c0 .865.387 1.664 1.03 2.382.642.715 1.562 1.377 2.701 1.992 2.28 1.229 5.541 2.318 9.524 3.227 7.976 1.819 18.967 2.939 31.088 2.939 12.12 0 23.111-1.12 31.087-2.94 3.983-.908 7.245-1.997 9.524-3.226 1.14-.614 2.06-1.277 2.7-1.992.645-.718 1.031-1.517 1.031-2.382v-.046h-1.105v.046c0 .514-.225 1.062-.748 1.644-.525.586-1.326 1.177-2.402 1.758-2.153 1.16-5.305 2.223-9.246 3.122-7.873 1.796-18.778 2.911-30.841 2.911-12.064 0-22.968-1.115-30.842-2.911-3.941-.9-7.093-1.962-9.245-3.122-1.077-.581-1.878-1.172-2.403-1.758-.522-.582-.748-1.13-.748-1.644v-.046h-1.105z" clip-rule="evenodd"/>
  <path fill="#0055DC" fill-rule="evenodd" d="M11 67.652v.046c0 .865.387 1.664 1.03 2.382.642.715 1.562 1.377 2.701 1.992 2.28 1.229 5.541 2.318 9.524 3.227 7.976 1.819 18.967 2.939 31.088 2.939 12.12 0 23.111-1.12 31.087-2.94 3.983-.908 7.245-1.997 9.524-3.226 1.14-.615 2.06-1.278 2.7-1.992.645-.718 1.031-1.517 1.031-2.382v-.046H98.58v.046c0 .514-.225 1.062-.748 1.644-.525.586-1.326 1.177-2.402 1.758-2.153 1.16-5.304 2.223-9.246 3.122-7.873 1.796-18.778 2.911-30.841 2.911-12.064 0-22.969-1.115-30.842-2.911-3.941-.9-7.093-1.962-9.245-3.122-1.077-.581-1.878-1.172-2.403-1.758-.522-.582-.748-1.13-.748-1.644v-.046H11z" clip-rule="evenodd"/>
  <path fill="#0055DC" fill-rule="evenodd" d="M11 66.356v.046c0 .864.387 1.663 1.03 2.381.642.715 1.562 1.378 2.701 1.992 2.28 1.23 5.541 2.319 9.524 3.227 7.976 1.82 18.967 2.94 31.088 2.94 12.12 0 23.111-1.12 31.087-2.94 3.983-.908 7.245-1.998 9.524-3.227 1.14-.614 2.06-1.277 2.7-1.992.645-.718 1.031-1.517 1.031-2.381v-.046H98.58v.046c0 .514-.225 1.061-.748 1.644-.525.585-1.326 1.176-2.402 1.757-2.153 1.16-5.304 2.224-9.246 3.122-7.873 1.796-18.778 2.912-30.841 2.912-12.064 0-22.969-1.116-30.842-2.912-3.941-.898-7.093-1.961-9.245-3.122-1.077-.58-1.878-1.172-2.403-1.757-.522-.583-.748-1.13-.748-1.644v-.046H11z" clip-rule="evenodd"/>
</svg>
